<svg width="20" height="20" fill="none" xmlns="http://www.w3.org/2000/svg"><g clip-path="url(#clip0_521_16001)"><path d="M20 0H0v20h20V0z" fill="#fff" fill-opacity=".01"/><path d="M19.9 10c0 5.468-4.432 9.9-9.9 9.9S.1 15.468.1 10 4.532.1 10 .1s9.9 4.432 9.9 9.9z" fill="url(#paint0_radial_521_16001)" stroke="url(#paint1_linear_521_16001)" stroke-width=".2" stroke-linejoin="round"/><mask id="a" style="mask-type:alpha" maskUnits="userSpaceOnUse" x="3" y="3" width="16" height="12"><path d="M3.5 8.943c0-2.8 2.093-5.151 4.853-5.336A41.745 41.745 0 0111 3.5c.743 0 1.652.042 2.59.104C16.383 3.788 18.5 6.168 18.5 9s-2.117 5.22-4.91 5.412c-.773.054-1.482.088-2.019.088-.721 0-1.867-.062-3.098-.147-2.816-.195-4.973-2.57-4.973-5.41z" fill="#1F1818" stroke="url(#paint2_linear_521_16001)"/></mask><g mask="url(#a)"><path d="M3.5 8.943c0-2.8 2.093-5.151 4.853-5.336A41.745 41.745 0 0111 3.5c.743 0 1.652.042 2.59.104C16.383 3.788 18.5 6.168 18.5 9s-2.117 5.22-4.91 5.412c-.773.054-1.482.088-2.019.088-.721 0-1.867-.062-3.098-.147-2.816-.195-4.973-2.57-4.973-5.41z" fill="#1F1818" stroke="url(#paint3_linear_521_16001)"/><path d="M1.516 5.47c.593-2.331 2.56-4.064 4.957-4.26C7.865 1.094 9.363 1 10.5 1c1.355 0 3.224.135 4.814.277C17.428 1.465 18 2.5 16.5 4 14 6.5 6.286 9 4 9a4.203 4.203 0 01-1.398-.222c-1.278-.447-1.42-1.996-1.086-3.309z" fill="#E6F0FF" fill-opacity=".5"/><path d="M3.5 8.943c0-2.8 2.093-5.151 4.853-5.336A41.745 41.745 0 0111 3.5c.743 0 1.652.042 2.59.104C16.383 3.788 18.5 6.168 18.5 9s-2.117 5.22-4.91 5.412c-.773.054-1.482.088-2.019.088-.721 0-1.867-.062-3.098-.147-2.816-.195-4.973-2.57-4.973-5.41z" stroke="url(#paint4_linear_521_16001)"/><g filter="url(#filter0_d_521_16001)"><rect x="7" y="6.5" width="3" height="4" rx="1.5" fill="#F1F2F4"/></g><g filter="url(#filter1_d_521_16001)"><rect x="13" y="6.5" width="3" height="4" rx="1.5" fill="#F1F2F4"/></g></g></g><defs><linearGradient id="paint1_linear_521_16001" x1="17" y1="19" x2="4" y2="1.5" gradientUnits="userSpaceOnUse"><stop stop-color="#B5A2A2"/><stop offset="1" stop-color="#fff" stop-opacity="0"/></linearGradient><linearGradient id="paint2_linear_521_16001" x1="1.933" y1="8.455" x2="17.438" y2="4.795" gradientUnits="userSpaceOnUse"><stop stop-color="#FF47D7"/><stop offset=".635" stop-color="#385CF7"/><stop offset="1" stop-color="#16ABFF"/></linearGradient><linearGradient id="paint3_linear_521_16001" x1="1.933" y1="8.455" x2="17.438" y2="4.795" gradientUnits="userSpaceOnUse"><stop stop-color="#FF47D7"/><stop offset=".635" stop-color="#385CF7"/><stop offset="1" stop-color="#16ABFF"/></linearGradient><linearGradient id="paint4_linear_521_16001" x1="1.933" y1="8.455" x2="17.438" y2="4.795" gradientUnits="userSpaceOnUse"><stop stop-color="#FF47D7"/><stop offset=".635" stop-color="#385CF7"/><stop offset="1" stop-color="#16ABFF"/></linearGradient><filter id="filter0_d_521_16001" x="6" y="5.5" width="5" height="6" filterUnits="userSpaceOnUse" color-interpolation-filters="sRGB"><feFlood flood-opacity="0" result="BackgroundImageFix"/><feColorMatrix in="SourceAlpha" values="0 0 0 0 0 0 0 0 0 0 0 0 0 0 0 0 0 0 127 0" result="hardAlpha"/><feOffset/><feGaussianBlur stdDeviation=".5"/><feComposite in2="hardAlpha" operator="out"/><feColorMatrix values="0 0 0 0 1 0 0 0 0 1 0 0 0 0 1 0 0 0 0.58 0"/><feBlend in2="BackgroundImageFix" result="effect1_dropShadow_521_16001"/><feBlend in="SourceGraphic" in2="effect1_dropShadow_521_16001" result="shape"/></filter><filter id="filter1_d_521_16001" x="12" y="5.5" width="5" height="6" filterUnits="userSpaceOnUse" color-interpolation-filters="sRGB"><feFlood flood-opacity="0" result="BackgroundImageFix"/><feColorMatrix in="SourceAlpha" values="0 0 0 0 0 0 0 0 0 0 0 0 0 0 0 0 0 0 127 0" result="hardAlpha"/><feOffset/><feGaussianBlur stdDeviation=".5"/><feComposite in2="hardAlpha" operator="out"/><feColorMatrix values="0 0 0 0 1 0 0 0 0 1 0 0 0 0 1 0 0 0 0.58 0"/><feBlend in2="BackgroundImageFix" result="effect1_dropShadow_521_16001"/><feBlend in="SourceGraphic" in2="effect1_dropShadow_521_16001" result="shape"/></filter><radialGradient id="paint0_radial_521_16001" cx="0" cy="0" r="1" gradientUnits="userSpaceOnUse" gradientTransform="rotate(66.801 1.733 5.929) scale(19.0394)"><stop stop-color="#fff"/><stop offset=".713" stop-color="#D3AED3"/><stop offset="1" stop-color="#FCF3F3"/></radialGradient><clipPath id="clip0_521_16001"><path fill="#fff" d="M0 0h20v20H0z"/></clipPath></defs></svg>